<?xml version="1.0" encoding="utf-8"?>
<!-- Generator: Adobe Illustrator 22.1.0, SVG Export Plug-In . SVG Version: 6.00 Build 0)  -->
<svg version="1.1" id="Layer_1" xmlns="http://www.w3.org/2000/svg" xmlns:xlink="http://www.w3.org/1999/xlink" x="0px" y="0px"
	 viewBox="0 0 145 180.5" style="enable-background:new 0 0 145 180.5;" xml:space="preserve">
<style type="text/css">
	.st0{fill:#FFFFFF;}
</style>
<title>Asset 2</title>
<g id="Layer_2_1_">
	<g id="Layer_1-2">
		<path class="st0" d="M81.6,108.3H45.3c-5,0-9,4-9.1,8.9c0,0,0,0,0,0.1c0,5,4,9,9,9c0,0,0,0,0.1,0h36.2c5,0,9-4,9-9
			S86.5,108.3,81.6,108.3z M117.8,18h-10.7C103.3,7.2,93,0,81.6,0H63.4C52,0,41.7,7.2,37.9,18H27.2C12.2,18,0,30.1,0,45.1l0,0v108.3
			c0,15,12.2,27.1,27.2,27.1l0,0h90.6c15,0,27.2-12.1,27.2-27.1V45.1C145,30.1,132.8,18,117.8,18z M54.4,27c0-5,4-9,9-9
			c0,0,0,0,0.1,0h18.1c5,0,9,4,9.1,8.9c0,0,0,0,0,0.1v9H54.4V27z M126.9,153.4c0,5-4,9-9,9c0,0,0,0-0.1,0H27.2c-5,0-9-4-9.1-8.9
			c0,0,0,0,0-0.1V45.1c0-5,4-9,9-9c0,0,0,0,0.1,0h9.1v9c0,5,4,9,9,9c0,0,0,0,0.1,0h54.4c5,0,9-4,9.1-8.9c0,0,0,0,0-0.1v-9h9.1
			c5,0,9,4,9.1,8.9c0,0,0,0,0,0.1L126.9,153.4z M99.7,72.2H45.3c-5,0-9,4-9.1,8.9c0,0,0,0,0,0.1c0,5,4,9,9,9c0,0,0,0,0.1,0h54.4
			c5,0,9-4,9-9S104.7,72.2,99.7,72.2L99.7,72.2z"/>
	</g>
</g>
</svg>
