<svg xmlns="http://www.w3.org/2000/svg" viewBox="0 0 189.1 182.8"><defs><style>.cls-1{fill:#ff3343;}</style></defs><title>Asset 3</title><g id="Layer_2" data-name="Layer 2"><g id="Layer_1-2" data-name="Layer 1"><path class="cls-1" d="M135.59,37.51,100.23,1.83A6.16,6.16,0,0,0,98.17.47,6.1,6.1,0,0,0,95.75,0a6.29,6.29,0,0,0-4.41,1.83L1.83,91a6.31,6.31,0,0,0,0,8.89l35.68,35.68A6.48,6.48,0,0,0,39.57,137a6.36,6.36,0,0,0,6.83-1.36l17.84-17.84,53.51-53.52,17.84-17.84a6.28,6.28,0,0,0,0-8.88ZM113.28,50.87l-4.48-4.48a6.31,6.31,0,0,0-8.89,0,6.61,6.61,0,0,0-1.38,2,6.3,6.3,0,0,0,1.38,6.9l4.48,4.48-9,8.89L82.08,55.34a6.3,6.3,0,0,0-8.56.34,6.3,6.3,0,0,0-.33,8.55L86.55,77.59l-9,9-4.41-4.47a6.33,6.33,0,1,0-9,9l4.47,4.41-8.89,8.95L46.4,91a6.29,6.29,0,0,0-8.89,8.89l13.36,13.36-8.88,9L15.2,95.43,95.44,15.19,122.23,42Z"/><path class="cls-1" d="M69.34,182.8H182.8a6.3,6.3,0,0,0,6.3-6.3V63a6.3,6.3,0,0,0-6.3-6.3H145a6.3,6.3,0,0,0-6.3,6.3v69.34H69.34a6.3,6.3,0,0,0-6.3,6.31V176.5a6.3,6.3,0,0,0,6.3,6.3ZM75.64,145H88.25v6.3a6.3,6.3,0,1,0,12.6,0V145h12.61v6.3a6.31,6.31,0,0,0,12.61,0V145h12.61v6.3a6.3,6.3,0,1,0,12.6,0V145h6.3a6.31,6.31,0,0,0,0-12.61h-6.3v-12.6h6.3a6.31,6.31,0,0,0,0-12.61h-6.3V94.55h6.3a6.3,6.3,0,1,0,0-12.6h-6.3V69.34H176.5V170.19H75.64Z"/></g></g></svg>