<svg xmlns="http://www.w3.org/2000/svg" viewBox="0 0 236 257.67"><defs><style>.cls-1{fill:#ff3343;}</style></defs><title>Asset 1</title><g id="Layer_2" data-name="Layer 2"><g id="Layer_1-2" data-name="Layer 1"><path class="cls-1" d="M174.75,153.86a10.22,10.22,0,0,0-1.29,1.71,6.25,6.25,0,0,0-1,1.82,6.58,6.58,0,0,0-.64,2,10,10,0,0,0,.64,6.09,9.71,9.71,0,0,0,5.8,5.78,9.08,9.08,0,0,0,4.07.85,10.74,10.74,0,0,0,4.08-.75A15.79,15.79,0,0,0,190,169a10.88,10.88,0,0,0,2.32-3.48,10.73,10.73,0,0,0,.79-4.11,8.91,8.91,0,0,0-.86-4.06,12.12,12.12,0,0,0-2.25-3.53,10.83,10.83,0,0,0-3.5-2.31,10.71,10.71,0,0,0-4.12-.79,10.94,10.94,0,0,0-4.07.85A10.78,10.78,0,0,0,174.75,153.86Zm-44.2,44.47a6,6,0,0,0-1,1.82,6.07,6.07,0,0,0-.86,2,9.18,9.18,0,0,0,0,4.17l.64,1.93,1,1.92,1.28,1.6a11.24,11.24,0,0,0,7.83,3.1,10.72,10.72,0,0,0,7.62-3.1,12.21,12.21,0,0,0,2.25-3.52,10.56,10.56,0,0,0,.75-5.12,10.64,10.64,0,0,0-5.58-8.36,10.81,10.81,0,0,0-5-1.28,11.3,11.3,0,0,0-7.61,3.1Zm44.2-1.71a10.87,10.87,0,0,0-2.26,3.53,10.68,10.68,0,0,0-.85,6.2l.64,1.93a8.45,8.45,0,0,0,1,1.92,15.21,15.21,0,0,0,1.28,1.6,10.72,10.72,0,0,0,3.54,2.25,10.11,10.11,0,0,0,8.16,0,12.3,12.3,0,0,0,3.54-2.25,10.71,10.71,0,0,0,2.42-3.46,10.47,10.47,0,0,0,.9-4.13,8.91,8.91,0,0,0-.86-4.06,12.12,12.12,0,0,0-2.25-3.53,12.35,12.35,0,0,0-3.54-2.24,10.08,10.08,0,0,0-8.15,0A10.76,10.76,0,0,0,174.75,196.62Zm-45.16-31.11a10.58,10.58,0,0,0,2.25,3.53,11.25,11.25,0,0,0,7.61,3.1,10.75,10.75,0,0,0,8.88-4.76,10.68,10.68,0,0,0,1.74-4.87,10.56,10.56,0,0,0-.75-5.12,12.12,12.12,0,0,0-2.25-3.53,10.72,10.72,0,0,0-7.62-3.1,11.3,11.3,0,0,0-7.61,3.1,10.65,10.65,0,0,0-2.25,11.65Zm45.16-54.41a12.45,12.45,0,0,0-2.26,3.52,10.35,10.35,0,0,0,5.8,13.9,10.08,10.08,0,0,0,8.15,0,12.35,12.35,0,0,0,3.54-2.24,10.82,10.82,0,0,0,2.32-3.49,10.65,10.65,0,0,0,.79-4.1,9,9,0,0,0-.86-4.07A12.21,12.21,0,0,0,190,111.1a11.1,11.1,0,0,0-15.23,0ZM42.91,118.69v85.52A10.7,10.7,0,0,0,53.64,214.9H96.55a10.7,10.7,0,0,0,10.72-10.69V118.69A10.7,10.7,0,0,0,96.55,108H53.64a10.7,10.7,0,0,0-10.73,10.69Zm42.91,10.69v64.14H64.36V129.38ZM0,97.31V225.59a32.14,32.14,0,0,0,32.18,32.08H203.82A32.14,32.14,0,0,0,236,225.59V97.31a32.14,32.14,0,0,0-32.18-32.08H32.18A32.14,32.14,0,0,0,0,97.31ZM203.82,86.62a10.7,10.7,0,0,1,10.73,10.69V225.59a10.7,10.7,0,0,1-10.73,10.69H32.18a10.72,10.72,0,0,1-10.73-10.69V97.31A10.72,10.72,0,0,1,32.18,86.62Zm-73.27,26.19a6,6,0,0,0-1,1.81,6.4,6.4,0,0,0-.65,2,9.18,9.18,0,0,0,0,4.17l.65,1.92,1,1.92,1.29,1.61a11.3,11.3,0,0,0,7.61,3.1,10.75,10.75,0,0,0,8.88-4.76,10.71,10.71,0,0,0,1-10,12.21,12.21,0,0,0-2.25-3.52,10.72,10.72,0,0,0-7.62-3.1,11.3,11.3,0,0,0-7.61,3.1Z"/><path class="cls-1" d="M43.9,3.74a6.14,6.14,0,0,0-1.32,2,6,6,0,0,0-.45,2.37l.5,37.06a6.21,6.21,0,0,0,.51,2.36,6.36,6.36,0,0,0,1.38,2,6.27,6.27,0,0,0,2,1.33,6.4,6.4,0,0,0,2.37.45L73.65,51l95.51-1.3a6.14,6.14,0,0,0,4.34-1.89L191.77,29a6.15,6.15,0,0,0,1.76-4.39,6.21,6.21,0,0,0-1.87-4.34L172.88,2a6.25,6.25,0,0,0-4.62-2L73,1.55l-24.56.08a7,7,0,0,0-2.39.51A6.13,6.13,0,0,0,45,3.2a4.4,4.4,0,0,0-.6.62Zm122.18,8.88,12.53,12.19-12.2,12.54L79.64,38.52l-.33-24.73ZM67,14l.34,24.73L55,38.81l-.33-24.64Z"/></g></g></svg>