<?xml version="1.0" encoding="utf-8"?>
<!-- Generator: Adobe Illustrator 22.1.0, SVG Export Plug-In . SVG Version: 6.00 Build 0)  -->
<svg version="1.1" id="Layer_1" xmlns="http://www.w3.org/2000/svg" xmlns:xlink="http://www.w3.org/1999/xlink" x="0px" y="0px"
	 viewBox="0 0 115 94.1" style="enable-background:new 0 0 115 94.1;" xml:space="preserve">
<style type="text/css">
	.st0{fill:#FFFFFF;}
</style>
<title>Asset 5</title>
<g id="Layer_2_1_">
	<g id="Layer_1-2">
		<path class="st0" d="M115,11.3c-4.3,1.9-8.9,3.1-13.6,3.7c4.9-3,8.6-7.7,10.4-13.1c-4.6,2.8-9.7,4.7-15,5.8
			C88-1.9,73.1-2.6,63.6,6.2c-2.4,2.2-4.3,4.8-5.6,7.8c-2.1,4.8-2.6,10.1-1.4,15.3c-9.4-0.5-18.6-3-26.9-7.3
			C21.3,17.7,13.9,11.8,8,4.4c-2.1,3.7-3.2,7.8-3.2,12c0,7.9,3.9,15.3,10.4,19.7c-3.7-0.1-7.4-1.1-10.7-3v0.3c0,5.5,1.9,10.7,5.4,15
			c3.4,4.2,8.2,7.1,13.6,8.2c-2,0.6-4.2,1-6.3,1c-1.5,0-3-0.2-4.4-0.4c3.1,9.6,11.9,16.2,22,16.4c-8.3,6.5-18.5,10.1-29.1,10.2
			c-1.9,0-3.8-0.1-5.8-0.3c10.8,7,23.3,10.7,36.2,10.7c8.9,0.1,17.6-1.6,25.8-4.9c8.2-3.4,15.7-8.3,21.9-14.6
			c12.7-12.7,19.7-30,19.6-48v-3.1C108,20.1,111.9,16,115,11.3z"/>
	</g>
</g>
</svg>
