<?xml version="1.0" encoding="utf-8"?>
<!-- Generator: Adobe Illustrator 22.1.0, SVG Export Plug-In . SVG Version: 6.00 Build 0)  -->
<svg version="1.1" id="Layer_1" xmlns="http://www.w3.org/2000/svg" xmlns:xlink="http://www.w3.org/1999/xlink" x="0px" y="0px"
	 viewBox="0 0 130 90" style="enable-background:new 0 0 130 90;" xml:space="preserve">
<style type="text/css">
	.st0{fill:#FFFFFF;}
</style>
<title>Asset 6</title>
<g id="Layer_2_1_">
	<g id="Layer_1-2">
		<path class="st0" d="M130,31.7c0.3-8.3-1.6-16.6-5.4-24c-2.6-3.1-6.2-5.1-10.2-5.8C98,0.4,81.5-0.2,65,0.1
			C48.6-0.2,32.1,0.4,15.8,1.8c-3.2,0.6-6.2,2.1-8.6,4.3C1.8,11,1.2,19.2,0.6,26.2c-0.9,12.6-0.9,25.1,0,37.7
			c0.2,3.9,0.8,7.8,1.8,11.6c0.7,2.9,2.2,5.7,4.2,7.9c2.4,2.4,5.5,4,8.8,4.6c12.7,1.5,25.6,2.2,38.4,1.9c20.7,0.3,38.8,0,60.2-1.6
			c3.4-0.6,6.5-2.2,9-4.5c1.7-1.6,2.9-3.6,3.6-5.8c2.1-6.4,3.1-13.1,3.1-19.8C130,54.9,130,35.2,130,31.7z M51.7,61.6v-36l35,18.1
			C76.8,49,63.9,55.1,51.7,61.6L51.7,61.6z"/>
	</g>
</g>
</svg>
